<svg width="18" height="18" viewBox="0 0 18 18" fill="none" xmlns="http://www.w3.org/2000/svg">
<path fill-rule="evenodd" clip-rule="evenodd" d="M16.0909 4.06181C16.2351 4.28015 16.211 4.57686 16.0189 4.76907L9.12456 11.6633C9.05384 11.734 8.96564 11.7846 8.86896 11.8099L5.99763 12.5599C5.90398 12.5843 5.80745 12.5838 5.71675 12.5607C5.62032 12.5362 5.5305 12.4861 5.45773 12.4133C5.31653 12.2722 5.26077 12.0667 5.31124 11.8735L6.06124 9.0021C6.08334 8.9175 6.12481 8.83395 6.18218 8.7684L13.102 1.85225C13.1626 1.79168 13.2355 1.74635 13.315 1.71872C13.3738 1.69824 13.4362 1.6875 13.4998 1.6875C13.6489 1.6875 13.792 1.74677 13.8975 1.85225L16.0189 3.97358C16.0463 4.00103 16.0703 4.03062 16.0909 4.06181ZM14.8256 4.37132L13.4998 3.04549L7.11114 9.4341L6.6424 11.2287L8.43696 10.7599L14.8256 4.37132Z" fill="black" fill-opacity="0.6"/>
<path d="M14.7311 12.8702C14.9361 11.117 15.0014 9.35161 14.9267 7.59061C14.9232 7.50631 14.9549 7.42424 15.0146 7.36457L15.752 6.62707C15.8427 6.5364 15.9977 6.59396 16.0061 6.72191C16.1449 8.81416 16.0922 10.9159 15.8484 13.001C15.671 14.5178 14.4527 15.7066 12.9437 15.8753C10.3438 16.1658 7.65624 16.1658 5.05634 15.8753C3.5473 15.7066 2.32905 14.5178 2.15164 13.001C1.84073 10.3427 1.84073 7.65728 2.15164 4.99908C2.32905 3.48218 3.5473 2.29342 5.05634 2.12476C7.02865 1.90433 9.05139 1.85112 11.048 1.96513C11.1767 1.97248 11.2353 2.12818 11.1442 2.21932L10.3998 2.96374C10.3408 3.02276 10.2599 3.05446 10.1764 3.05164C8.50659 2.99533 6.82543 3.05905 5.1813 3.2428C4.18372 3.3543 3.3846 4.14151 3.26902 5.12977C2.96827 7.70116 2.96827 10.2989 3.26902 12.8702C3.3846 13.8585 4.18372 14.6457 5.1813 14.7572C7.69816 15.0385 10.3019 15.0385 12.8187 14.7572C13.8164 14.6457 14.6154 13.8585 14.7311 12.8702Z" fill="black" fill-opacity="0.6"/>
</svg>
