<svg width="20" height="20" viewBox="0 0 20 20" fill="none" xmlns="http://www.w3.org/2000/svg">
<path d="M9.59162 8.59802C9.91997 8.59802 10.1862 8.86422 10.1862 9.19257V13.1562C10.1862 13.4846 9.91997 13.7508 9.59162 13.7508C9.26327 13.7508 8.99707 13.4846 8.99707 13.1562V9.19257C8.99707 8.86422 9.26327 8.59802 9.59162 8.59802Z" fill="#A48F2E"/>
<path d="M9.59181 7.21071C10.0296 7.21071 10.3845 6.85579 10.3845 6.41798C10.3845 5.98017 10.0296 5.62524 9.59181 5.62524C9.15398 5.62524 8.79907 5.98017 8.79907 6.41798C8.79907 6.85579 9.15398 7.21071 9.59181 7.21071Z" fill="#A48F2E"/>
<path fill-rule="evenodd" clip-rule="evenodd" d="M2.65503 9.5889C2.65503 5.75801 5.76058 2.65247 9.59146 2.65247C13.4224 2.65247 16.5279 5.75801 16.5279 9.5889C16.5279 13.4198 13.4224 16.5253 9.59146 16.5253C5.76058 16.5253 2.65503 13.4198 2.65503 9.5889ZM9.59146 3.84157C6.4173 3.84157 3.84413 6.41474 3.84413 9.5889C3.84413 12.7631 6.4173 15.3362 9.59146 15.3362C12.7657 15.3362 15.3388 12.7631 15.3388 9.5889C15.3388 6.41474 12.7657 3.84157 9.59146 3.84157Z" fill="#A48F2E"/>
</svg>
