<svg width="16" height="16" viewBox="0 0 16 16" fill="none" xmlns="http://www.w3.org/2000/svg">
<path d="M8 12.175C7.78333 12.175 7.60417 12.1042 7.4625 11.9625C7.32083 11.8208 7.25 11.6417 7.25 11.425V2.89999L4.775 5.37499C4.625 5.52499 4.45 5.59582 4.25 5.58749C4.05 5.57915 3.875 5.49999 3.725 5.34999C3.575 5.19999 3.5 5.02082 3.5 4.81249C3.5 4.60415 3.575 4.42499 3.725 4.27499L7.475 0.524988C7.55833 0.441654 7.64167 0.383321 7.725 0.349988C7.80833 0.316654 7.9 0.299988 8 0.299988C8.1 0.299988 8.19167 0.316654 8.275 0.349988C8.35833 0.383321 8.44167 0.441654 8.525 0.524988L12.3 4.29999C12.45 4.44999 12.525 4.62499 12.525 4.82499C12.525 5.02499 12.45 5.19999 12.3 5.34999C12.15 5.49999 11.9708 5.57499 11.7625 5.57499C11.5542 5.57499 11.375 5.49999 11.225 5.34999L8.75 2.89999V11.425C8.75 11.6417 8.67917 11.8208 8.5375 11.9625C8.39583 12.1042 8.21667 12.175 8 12.175ZM1.5 16C1.1 16 0.75 15.85 0.45 15.55C0.15 15.25 0 14.9 0 14.5V11.675C0 11.4583 0.0708334 11.2792 0.2125 11.1375C0.354167 10.9958 0.533333 10.925 0.75 10.925C0.966667 10.925 1.14583 10.9958 1.2875 11.1375C1.42917 11.2792 1.5 11.4583 1.5 11.675V14.5H14.5V11.675C14.5 11.4583 14.5708 11.2792 14.7125 11.1375C14.8542 10.9958 15.0333 10.925 15.25 10.925C15.4667 10.925 15.6458 10.9958 15.7875 11.1375C15.9292 11.2792 16 11.4583 16 11.675V14.5C16 14.9 15.85 15.25 15.55 15.55C15.25 15.85 14.9 16 14.5 16H1.5Z" fill="black" fill-opacity="0.62"/>
</svg>
